<?xml version="1.0" encoding="UTF-8" standalone="no"?>
<!DOCTYPE svg PUBLIC "-//W3C//DTD SVG 1.1//EN"
 "http://www.w3.org/Graphics/SVG/1.1/DTD/svg11.dtd">
<!-- Generated by graphviz version 8.0.5 (20230430.1635)
 -->
<!-- Pages: 1 -->
<svg width="191pt" height="221pt"
 viewBox="0.00 0.00 191.12 221.00" xmlns="http://www.w3.org/2000/svg" xmlns:xlink="http://www.w3.org/1999/xlink">
<g id="graph0" class="graph" transform="scale(1 1) rotate(0) translate(4 217)">
<polygon fill="white" stroke="none" points="-4,4 -4,-217 187.12,-217 187.12,4 -4,4"/>
<!-- Lucy -->
<g id="node1" class="node">
<title>Lucy</title>
<ellipse fill="none" stroke="black" cx="72.37" cy="-195" rx="29.86" ry="18"/>
<text text-anchor="middle" x="72.37" y="-189.95" font-family="Times,serif" font-size="14.00">Lucy</text>
</g>
<!-- Ethel -->
<g id="node3" class="node">
<title>Ethel</title>
<ellipse fill="none" stroke="black" cx="30.37" cy="-106.5" rx="30.37" ry="18"/>
<text text-anchor="middle" x="30.37" y="-101.45" font-family="Times,serif" font-size="14.00">Ethel</text>
</g>
<!-- Lucy&#45;&gt;Ethel -->
<g id="edge3" class="edge">
<title>Lucy&#45;&gt;Ethel</title>
<path fill="none" stroke="black" d="M51.58,-181.56C43.86,-175.75 35.93,-168.1 31.62,-159 28.18,-151.75 27,-143.26 26.91,-135.28"/>
<polygon fill="black" stroke="black" points="30.44,-135.68 27.4,-125.54 23.45,-135.37 30.44,-135.68"/>
<text text-anchor="middle" x="67.24" y="-145.7" font-family="Times,serif" font-size="14.00">:friends&#45;with</text>
</g>
<!-- Fred -->
<g id="node2" class="node">
<title>Fred</title>
<ellipse fill="none" stroke="black" cx="72.37" cy="-18" rx="27.81" ry="18"/>
<text text-anchor="middle" x="72.37" y="-12.95" font-family="Times,serif" font-size="14.00">Fred</text>
</g>
<!-- Fred&#45;&gt;Lucy -->
<g id="edge1" class="edge">
<title>Fred&#45;&gt;Lucy</title>
<path fill="none" stroke="black" d="M87.95,-33.2C93.28,-39.06 98.58,-46.28 101.37,-54 117.19,-97.9 117.19,-115.1 101.37,-159 99.87,-163.14 97.66,-167.14 95.1,-170.86"/>
<polygon fill="black" stroke="black" points="91.74,-168.46 88.26,-178.46 97.22,-172.81 91.74,-168.46"/>
<text text-anchor="middle" x="148.24" y="-101.45" font-family="Times,serif" font-size="14.00">:friends&#45;with</text>
</g>
<!-- Ethel&#45;&gt;Fred -->
<g id="edge2" class="edge">
<title>Ethel&#45;&gt;Fred</title>
<path fill="none" stroke="black" d="M27.4,-88.46C26.39,-78.03 26.56,-64.67 31.62,-54 34.55,-47.81 39.16,-42.28 44.24,-37.56"/>
<polygon fill="black" stroke="black" points="45.95,-39.87 51.44,-30.81 41.5,-34.46 45.95,-39.87"/>
<text text-anchor="middle" x="67.24" y="-57.2" font-family="Times,serif" font-size="14.00">:friends&#45;with</text>
</g>
</g>
</svg>
